<mxfile host="app.diagrams.net" modified="2023-09-12T04:00:23.901Z" agent="Mozilla/5.0 (Windows NT 10.0; Win64; x64) AppleWebKit/537.36 (KHTML, like Gecko) Chrome/116.0.0.0 Safari/537.36" version="21.7.4" etag="QyhBvd0risk4WkitSZXK" type="github">
  <diagram name="Page-1" id="rCXRZRMT4k56N74g9lq9">
    <mxGraphModel>
      <root>
        <mxCell id="0" />
        <mxCell id="1" parent="0" />
      </root>
    </mxGraphModel>
  </diagram>
</mxfile>
